<svg id="Layer_1" data-name="Layer 1" xmlns="http://www.w3.org/2000/svg" viewBox="0 0 169.9434 75.8684"><defs><style>.cls-1{fill:#c00;}</style></defs><path class="cls-1" d="M5.4481,47.6064c-.4327,0-.5643.6124-.5643,1.49L4.4873,75.02c-.0436,3.81-.2193,5.0779-1.3574,5.4309-.6111.1729-.3722.2149-.9414.2149-.4364,0-.7031.091-.7031.353,0,.392.3974.438.9648.438,2.2752,0,3.3084-.135,3.6991-.135.8338,0,1.5574.135,4.4024.135.61,0,1.008-.089,1.008-.438,0-.262-.264-.353-.746-.353-.699,0-.505-.041-1.25-.3069-.8749-.305-1.4422-1.442-1.53-4.8589L7.5517,57.1094h.1328c.7862.8309,5.6472,6.3038,10.4138,11.0327C22.6492,72.65,28.252,78.3909,31.006,81.0188c.482.482,1.011.963,1.49.963.3929,0,.5719-.394.5719-1.357l.481-27.6323c.042-2.4514.396-3.3751,1.619-3.7246.523-.1274.089-.0383.492-.1289.507-.1217.787-.1339.787-.3965,0-.3465-.438-.3925-1.011-.3925-2.141,0-2.9819.1347-3.4609.1347-.921,0-1.996-.1347-4.2719-.1347-.658,0-1.138.046-1.138.3925,0,.2626.175.3965.699.3965a2.403,2.403,0,0,1,1.2969.2617c1.047.4378,1.44,1.2654,1.484,3.9374l.443,19.6656h-.226c-.745-.697-6.6479-7.0068-9.6228-9.9868C14.2483,56.67,7.5935,49.5342,7.0685,48.9612c-.7449-.7859-1.1374-1.3556-1.6207-1.3556Zm118.9575.1328c-.26,0-.39.263-.52.828-.09.3532-.93,4.3338-.93,5.0409,0,.4764.09.6973.4.6973.26,0,.39-.1759.48-.5234a5.3324,5.3324,0,0,1,.74-1.5351c.66-.962,1.71-1.1821,4.25-1.2695l6.52-.1738V68.7562c0,4.0279,0,8.0058-.22,9.8408-.13,1.274-.34,2.1319-1.27,2.4129a9.0525,9.0525,0,0,1-1.91.185C59.413,82.9629.4383,123.105.5682,123.296a.4074.4074,0,0,0,.5668.107c.487-.322,49.9189-32.3273,129.7072-38.2981,24.29-1.816,39.0892-2.372,39.2392-2.363a.4274.4274,0,0,0,.43-.33c.03-.171-5.78-1.489-26.7295-1.393-.38-.032-.75-.075-1.05-.117-1.31-.171-1.57-1.1359-1.7-2.3629-.22-1.88-.22-5.7549-.22-9.7828V50.8036l5.51.13c3.9.0888,5.08,1.3128,5.17,2.453l.04.4825c.05.6543.14.875.49.875.26,0,.34-.2649.39-.7032,0-1.1421.13-4.16.13-5.08,0-.6584-.04-.92-.35-.92a11.4047,11.4047,0,0,0-1.18.2227,20.9923,20.9923,0,0,1-3.02.2207h-17.33c-1.45,0-3.11-.0878-4.38-.2207a10.1818,10.1818,0,0,1-1.88-.5254Zm-66.6176.6113c-.654,0-.965.0873-.965.3925s.267.3965.746.3965a5.0607,5.0607,0,0,1,1.299.1289c1.4449.3071,1.3819,1.0105,1.4689,2.4961.087,1.4006.088,2.6256.088,9.2853V73.62c0,8.5828.044,12.9627-3.2849,16.3356a9.2661,9.2661,0,0,1-2.0979,1.662c-.745.396-.963.569-.963.787a.3461.3461,0,0,0,.35.352,1.97,1.97,0,0,0,.8769-.264,21.779,21.779,0,0,0,2.185-1.141c4.2009-2.5819,6.5219-5.6009,7.4418-8.2728a23.5385,23.5385,0,0,0,1.052-7.7538c0-2.186-.132-4.2889-.132-6.1719V61.05c0-6.66,0-7.8847.085-9.2853.089-1.5311.234-2.274,1.417-2.4961a4.2491,4.2491,0,0,1,.859-.1289c.523-.0441.785-.09.785-.3965s-.305-.3925-.918-.3925c-1.706,0-3.8469.1347-4.8979.1347C62.0469,48.4852,60.1089,48.3505,57.788,48.3505Zm33.6963,0c-.696,0-1.048.0869-1.048.35,0,.3489.262.4395.703.4395a3.5279,3.5279,0,0,1,1.164.17c.9639.226,1.1959.97,1.2849,2.4551.084,1.4006.084,2.6256.084,9.2853v7.7068c0,4.2469.001,7.7058-.217,9.5448-.134,1.271-.19,2.018-1.064,2.191a3.5962,3.5962,0,0,1-1.1659.1739c-.526,0-.7.134-.7.353,0,.304.307.438.875.438,1.75,0,3.8909-.135,4.8989-.135,1.1829,0,3.1169.135,6.0068.135.48,0,.83-.134.83-.438,0-.219-.22-.353-.7-.353a7.1359,7.1359,0,0,1-1.41-.1739c-1.31-.173-1.62-.965-1.75-2.143-.18-1.886-.18-5.3459-.18-9.5928V61.05c0-6.66,0-7.8847.09-9.2853.09-1.5311.24-2.274,1.41-2.4961a3.8907,3.8907,0,0,1,.91-.1289c.43,0,.7-.0906.7-.4395,0-.2626-.35-.35-.92-.35-1.66,0-3.631.1348-4.72.1348C95.2912,48.4852,93.1492,48.35,91.4843,48.3505Z" transform="translate(-0.568 -47.6056)"/></svg>